PathFileType	4	(X/Y/Z)	Patient4_TMGait_0pt3_02_left_05.trc.trc
DataRate	CameraRate	NumFrames	NumMarkers	Units	OrigDataRate	OrigDataStartFrame	OrigNumFrames
47.619047619048	47.619047619048	4	33	mm	47.619047619048	53	       141
Frame#	Time	Sacral			L.Shoulder			Chest			R.Shoulder			Neck			R.ASIS			L.ASIS			R.Thigh.Superior			R.Thigh.Lateral			R.Thigh.Inferior			R.Patella			L.Thigh.Superior			L.Thigh.Lateral			L.Thigh.Inferior			L.Patella			L.Shank.Superior			L.Shank.Lateral			L.Shank.Inferior			R.Shank.Superior			R.Shank.Lateral			R.Shank.Inferior			R.Heel			R.Midfoot.Superior			R.Midfoot.Lateral			R.Toe			L.Heel			L.Midfoot.Lateral			L.Midfoot.Superior			L.Toe			L.Elbow			L.Wrist			R.Elbow			R.Wrist			
		X1	Y1	Z1	X2	Y2	Z2	X3	Y3	Z3	X4	Y4	Z4	X5	Y5	Z5	X6	Y6	Z6	X7	Y7	Z7	X8	Y8	Z8	X9	Y9	Z9	X10	Y10	Z10	X11	Y11	Z11	X12	Y12	Z12	X13	Y13	Z13	X14	Y14	Z14	X15	Y15	Z15	X16	Y16	Z16	X17	Y17	Z17	X18	Y18	Z18	X19	Y19	Z19	X20	Y20	Z20	X21	Y21	Z21	X22	Y22	Z22	X23	Y23	Z23	X24	Y24	Z24	X25	Y25	Z25	X26	Y26	Z26	X27	Y27	Z27	X28	Y28	Z28	X29	Y29	Z29	X30	Y30	Z30	X31	Y31	Z31	X32	Y32	Z32	X33	Y33	Z33	

53	10.352000000000	724.741538439228	1001.737977031644	449.989145064608	921.778447174235	1418.179257813727	253.879801101996	1021.708917401589	1348.705602702676	416.528377105757	943.439699645465	1432.892081373082	587.149441500491	906.481296194158	1484.662767671980	410.149147851809	950.639626353995	931.685678910463	569.868415198943	941.708920329830	947.338663436284	296.808043169993	979.129046660724	726.086424564828	558.274554038883	891.960269212073	624.163257154730	626.140702965619	970.490119772440	558.392409912040	555.666243031997	955.218031668520	452.350880211823	580.834819331249	1004.188356866158	749.740902418009	346.295059045026	934.896576684964	620.033801287630	290.786097324685	1023.823596801727	555.295868161221	364.954130716150	1030.541232205248	480.026743704293	375.359870600775	993.007457652698	405.870412346216	370.304526703591	895.098426605689	299.283050755615	318.140698655833	926.530258173625	186.556883583730	395.016515757076	875.184925976099	389.753243250737	586.901468363177	751.823249034380	355.285404559339	643.941501586471	738.504976858454	244.212573542542	598.065290912187	536.075193323546	177.829152342777	564.098072988640	703.719894068536	126.394612169786	614.010996374198	593.392617541150	121.959731081382	640.736917194068	770.773865743006	32.139798805013	642.934044855820	782.239405540927	39.618155324841	432.708355908349	859.401217192447	36.791144446271	355.564160494821	942.841295776348	95.493239426144	386.370699746117	1071.427276446366	40.103722839127	361.511030966348	880.036383348170	1071.136301537289	132.631446524947	927.294668124578	813.828764559647	152.515116074722	1018.169267725348	1100.201345564170	724.305730997779	1221.987879315127	940.986713880247	754.469832648248	
54	10.373000000000	723.067247511930	998.678438118578	445.436128283162	922.561397694963	1416.385367159646	252.060186112512	1019.982611288301	1346.946793591766	416.136305416884	938.859746605969	1430.242915060273	585.990649985475	904.886995428970	1482.591041472535	408.431104186768	948.489095268898	930.151733914559	567.352663594068	941.779157707697	945.366376598405	294.174736739862	984.359870633758	727.236499866286	555.407856464459	901.673515947710	622.944775403219	624.068277825356	982.486835336134	559.240808908754	553.402968555139	969.549014858436	451.423627622435	579.641246560864	1004.631679003941	747.686689723276	343.740452761493	935.737974078494	617.754941395034	289.046664681218	1024.662821006663	553.434307973052	363.836182011313	1031.331765848817	477.819830123589	374.583906036030	992.530902528015	403.530469334926	369.765869883862	893.034412709897	298.314960142660	317.544609266772	922.190998026386	185.394018344509	394.885510574882	887.400323212182	389.512881010564	585.393559763086	762.215289915723	359.733132967250	641.541901444574	745.353812821855	249.051505234036	596.357918893343	541.295496147436	191.340822889175	560.782223534259	706.191516077395	132.333801719877	612.983050370525	595.179316271961	133.034164578430	638.277345954133	768.081506079679	32.450482099320	643.096504921497	775.984873420874	39.700547393122	432.631108462293	853.148553141868	36.774087238807	355.515100611045	936.627824414278	95.349802450420	386.395066670082	1065.176902110503	39.942300256512	361.453789003614	893.688754823579	1068.083211878578	129.548656429609	948.570286000596	812.372197703044	149.399526630445	997.328605515741	1092.997649329675	722.574844299540	1186.343909389230	917.151314006588	756.934560126027	
55	10.394000000000	721.301051864590	995.619558843435	441.277610075489	923.130066253336	1414.597541645474	250.591181493467	1018.082004363386	1345.216717292652	416.029329004867	934.122238255484	1427.568477207177	585.103628972884	903.134287951623	1480.526505833612	407.049174251933	946.262993972159	928.606610077281	565.109572711825	941.657936943682	943.443872668616	291.808042223845	989.432562277642	728.796088899532	552.573445964101	911.425263363275	622.175320314405	622.023920454221	994.410825421478	560.757848063965	551.065523078605	984.047270929311	451.287879957820	578.173699608506	1004.820891556194	745.633634104615	341.425129215357	936.257531759509	615.504621216335	287.493972922890	1025.110335004809	551.547458496404	362.918391199711	1031.704912430355	475.642302300832	374.040459954598	991.724777526575	401.240485780905	369.410044786306	890.776189012310	297.339756091019	317.082389283652	917.741059371481	184.254836119592	394.830278892769	900.039462131022	389.793518844076	583.674701303653	773.185394650948	364.216435578952	638.856263159700	753.173280949169	253.952791117848	594.264641801331	547.845667619065	203.890513671904	556.929097758685	710.118395391802	138.432600816529	611.516018063481	598.557219662841	143.678374689637	635.394162043550	767.366273575488	33.271825154020	643.066905314888	769.717590321446	39.764096425779	432.554679083321	846.885074079528	36.751718162442	355.460564675121	930.397730425317	95.200390926340	386.435360105993	1058.912335460102	39.809830762408	361.392381548557	907.362831717064	1065.461005115867	126.999457778455	970.914760410499	811.900358695711	146.901939143702	975.466051532436	1086.436030815206	720.411441900818	1148.142533489493	895.113194004926	757.872317484667	
56	10.415000000000	719.462175070873	992.755292132802	437.516013843243	923.519473149070	1412.987743142832	249.492927385573	1016.042244192387	1343.675669568055	416.226522427105	929.268565160842	1425.048044452956	584.492997907959	901.251616819005	1478.629781101723	406.017792257865	943.972355556203	927.204549657368	563.161470464719	941.384330634387	941.721037212259	289.730009153147	994.161318604109	730.845267345187	549.798548381920	920.931350049170	621.994133950121	620.009562624390	1005.918435944014	563.024680698110	548.665169803838	998.346238694733	452.072799328960	576.446963429384	1004.685170202399	743.662299589241	339.386599265087	936.318083756836	613.397918083530	286.144409296667	1024.987647792024	549.700544996989	362.209372673907	1031.458418547154	473.576132822598	373.731312981210	990.417000588651	399.096150748231	369.227832734179	888.200952250240	296.404096209118	316.744742381269	913.121602016273	183.189680175639	394.843842556736	912.825028725114	390.674786647941	581.787007633657	784.498362813114	368.561109247298	635.969171251493	761.936633474636	258.659129415818	591.884639894031	555.681971862754	214.729194808395	552.761272400240	715.708408762571	144.297865752710	609.691285022897	603.704325925947	153.215962862402	632.247539157239	769.145709295460	34.575680185634	642.822388245670	763.432870910964	39.811783302366	432.479370305267	840.608530600124	36.726387908980	355.403191446527	924.149217940979	95.052221909318	386.486512421594	1052.631741874376	39.704046988932	361.330270505615	920.841818645839	1063.503529918025	124.951256546435	994.158384971418	812.780462020457	145.001032661009	952.779051939439	1080.829324159996	717.808556960741	1107.821631833136	875.400785859627	757.265646680965	
